<svg width="17" height="18" viewBox="0 0 17 18" fill="none" xmlns="http://www.w3.org/2000/svg">
<g clip-path="url(#clip0_242_93)">
<path d="M14.1667 7.03125H7.79167C7.00926 7.03125 6.375 7.66551 6.375 8.44792V14.8229C6.375 15.6053 7.00926 16.2396 7.79167 16.2396H14.1667C14.9491 16.2396 15.5833 15.6053 15.5833 14.8229V8.44792C15.5833 7.66551 14.9491 7.03125 14.1667 7.03125Z" stroke="#444444" stroke-width="1.41667" stroke-linecap="round" stroke-linejoin="round"/>
<path d="M3.54169 11.2812H2.83335C2.45763 11.2812 2.0973 11.132 1.83162 10.8663C1.56594 10.6006 1.41669 10.2403 1.41669 9.86457V3.48957C1.41669 3.11385 1.56594 2.75351 1.83162 2.48784C2.0973 2.22216 2.45763 2.07291 2.83335 2.07291H9.20835C9.58408 2.07291 9.94441 2.22216 10.2101 2.48784C10.4758 2.75351 10.625 3.11385 10.625 3.48957V4.19791" stroke="#444444" stroke-width="1.41667" stroke-linecap="round" stroke-linejoin="round"/>
</g>
<defs>
<clipPath id="clip0_242_93">
<rect width="17" height="17" fill="white" transform="translate(0 0.65625)"/>
</clipPath>
</defs>
</svg>
