<svg xmlns="http://www.w3.org/2000/svg" viewBox="0 0 48 48" id="headphone"><path d="m45.4749,34.3984c1.0002-2.6163,1.5251-5.368,1.5251-8.1982,0-5.0389-1.6882-9.967-4.739-13.9568l1.1481-1.2366c.3564-.3838.3564-.9775,0-1.3608C38.2334,4.0703,31.3408,1,24,1S9.7666,4.0703,4.5908,9.646c-.3564.3833-.3564.9771,0,1.3608l1.148,1.2368c-3.0507,3.9897-4.7388,8.9177-4.7388,13.9566,0,2.8302.5248,5.582,1.5251,8.1982-1.265.9286-1.8588,2.6086-1.3298,4.1816l1.7197,5.1099c.3184.9453.9814,1.7046,1.8691,2.1387.502.2456,1.041.3696,1.583.3696.4004,0,.8027-.0679,1.1924-.2041l1.6977-.5934c.3545.5189.8234.9492,1.4,1.2311.502.2456,1.041.3691,1.582.3691.4004,0,.8027-.0679,1.1924-.2041l2.5068-.876c1.8965-.6621,2.9131-2.7681,2.2656-4.6938l-3.4375-10.2202c-.3184-.9448-.9814-1.7041-1.8682-2.1382-.8721-.4272-1.8584-.4854-2.7764-.1655l-2.5059.8755c-1.5757.5502-2.5276,2.0968-2.4399,3.7082l-.8236.2878c-.8851-2.355-1.3527-4.8289-1.3527-7.3744,0-4.6182,1.4718-8.9618,4.235-12.6202,1.1921.6443,2.6996.5161,3.7933-.4427,3.6602-3.2021,8.2676-4.9658,12.9717-4.9658s9.3115,1.7637,12.9717,4.9663c.6504.5684,1.4463.8491,2.2363.8491.5405,0,1.0712-.148,1.5552-.4094,2.7643,3.6589,4.2368,8.0036,4.2368,12.6228,0,2.5455-.4676,5.0193-1.3527,7.3744l-.8236-.2878c.0878-1.6114-.864-3.1578-2.4389-3.7077l-2.5068-.876c-.916-.3198-1.9033-.2617-2.7764.1655-.8867.4341-1.5498,1.1934-1.8682,2.1382l-3.4375,10.2202c-.6475,1.9258.3691,4.0317,2.2656,4.6938l2.5068.876c.3896.1362.792.2041,1.1924.2041.541,0,1.0801-.1235,1.582-.3691.5765-.2819,1.0453-.7122,1.4001-1.2311l1.6976.5934c.3896.1362.792.2041,1.1924.2041.542,0,1.0811-.124,1.583-.3696.8877-.4341,1.5508-1.1934,1.8691-2.1387l1.7197-5.1099c.529-1.573-.0648-3.253-1.3298-4.1816ZM6.8994,44.1064c-.4092.1421-.8496.1147-1.2363-.0742-.4033-.1973-.7061-.5454-.8516-.98l-1.7197-5.1099c-.3008-.8921.1611-1.8647,1.0293-2.1685l1.5512-.5418,2.1219,6.3073.6785,2.0173-1.5732.5498Zm1.376-12.6396l2.5068-.876c.1729-.0605.3525-.0903.5312-.0903.2412,0,.4814.0552.7061.1646.4023.1973.7051.5449.8506.9795l3.4375,10.2202c.3008.8926-.1611,1.8652-1.0283,2.168l-.001.0005-2.5068.876c-.4062.1421-.8457.1167-1.2354-.0742-.4033-.1968-.707-.5449-.8525-.9795l-3.4375-10.2202c-.3008-.8926.1611-1.8652,1.0293-2.1685Zm30.0127-19.8345c-4.0244-3.5215-9.0986-5.4609-14.2881-5.4609s-10.2637,1.9395-14.2881,5.4604c-.5615.4902-1.3818.4648-1.8682-.0605l-1.1455-1.2334c4.7129-4.7393,10.8223-7.3379,17.3018-7.3379s12.5889,2.5986,17.3018,7.3379l-1.1465,1.2339c-.4854.5254-1.3057.5503-1.8672.0605Zm-1.8242,33.2026c-.3896.1909-.8301.2163-1.2354.0742l-2.5068-.876-.001-.0005c-.8672-.3027-1.3291-1.2754-1.0283-2.168l3.4375-10.2202c.1455-.4346.4482-.7822.8506-.9795.2246-.1094.4648-.1646.7061-.1646.1787,0,.3584.0298.5312.0903l2.5078.8765c.8672.3027,1.3291,1.2754,1.0283,2.168l-3.4375,10.2202c-.0002.0008,0,.0016-.0003.0024-.1467.4337-.4498.7808-.8522.9771Zm8.4443-6.8926l-1.7197,5.1099c-.1455.4346-.4482.7827-.8516.98-.3867.1899-.8281.2168-1.2363.0742l-1.5728-.5496,2.7999-8.3246,1.5511.5417c.8682.3037,1.3301,1.2764,1.0293,2.1685Z"></path><path d="M24 26.8125c-1.2236 0-2.3652.5459-3.2139 1.5371-.3594.4194-.3105 1.0508.1094 1.4102.4189.3579 1.0498.3115 1.4102-.1094.9258-1.0811 2.4629-1.0811 3.3887 0 .1982.231.4785.3496.7598.3496.2305 0 .4619-.0791.6504-.2402.4199-.3594.4688-.9907.1094-1.4102-.8486-.9912-1.9902-1.5371-3.2139-1.5371zM30.3779 25.937c.4199-.3594.4688-.9907.1094-1.4102-1.7227-2.0122-4.0264-3.1206-6.4873-3.1206s-4.7646 1.1084-6.4873 3.1206c-.3594.4194-.3105 1.0508.1094 1.4102.4189.3579 1.0498.311 1.4102-.1094 1.3369-1.5615 3.1006-2.4214 4.9678-2.4214s3.6309.8599 4.9678 2.4214c.1982.231.4785.3496.7598.3496.2305 0 .4619-.0791.6504-.2402z"></path><path d="m32.2402,22.0049c.1982.231.4785.3496.7598.3496.2305,0,.4619-.0791.6504-.2402.4199-.3594.4688-.9907.1094-1.4102-2.5977-3.0337-6.0635-4.7041-9.7598-4.7041s-7.1621,1.6704-9.7598,4.7041c-.3594.4194-.3105,1.0508.1094,1.4102.4189.3579,1.0498.311,1.4102-.1094,2.2109-2.5825,5.1377-4.0049,8.2402-4.0049s6.0293,1.4224,8.2402,4.0049Z"></path></svg>